<?xml version="1.0" encoding="utf-8"?>
<!-- Generator: Adobe Illustrator 18.1.1, SVG Export Plug-In . SVG Version: 6.00 Build 0)  -->
<!DOCTYPE svg PUBLIC "-//W3C//DTD SVG 1.1//EN" "http://www.w3.org/Graphics/SVG/1.1/DTD/svg11.dtd">
<svg version="1.1" id="Layer_1" xmlns="http://www.w3.org/2000/svg" xmlns:xlink="http://www.w3.org/1999/xlink" x="0px" y="0px"
	 width="57px" height="57px" viewBox="0 0 57 57" enable-background="new 0 0 57 57" xml:space="preserve">
<g>
	<g>
		
			<polyline fill="none" stroke="#2DB674" stroke-width="2.0862" stroke-linecap="round" stroke-linejoin="round" stroke-miterlimit="10" points="
			12.8,16.6 22.1,16.6 26.5,8.9 		"/>
		
			<polyline fill="none" stroke="#2DB674" stroke-width="2.0862" stroke-linecap="round" stroke-linejoin="round" stroke-miterlimit="10" points="
			10.5,36.5 15.2,28.5 10.5,20.7 		"/>
		
			<polyline fill="none" stroke="#2DB674" stroke-width="2.0862" stroke-linecap="round" stroke-linejoin="round" stroke-miterlimit="10" points="
			26.6,48.3 22,40.5 12.8,40.5 		"/>
		
			<polyline fill="none" stroke="#2DB674" stroke-width="2.0862" stroke-linecap="round" stroke-linejoin="round" stroke-miterlimit="10" points="
			44.6,40.5 35.8,40.5 31.4,48.1 		"/>
		
			<polyline fill="none" stroke="#2DB674" stroke-width="2.0862" stroke-linecap="round" stroke-linejoin="round" stroke-miterlimit="10" points="
			47.3,20.8 42.7,28.6 47.3,36.5 		"/>
		
			<polyline fill="none" stroke="#2DB674" stroke-width="2.0862" stroke-linecap="round" stroke-linejoin="round" stroke-miterlimit="10" points="
			31.4,9 35.8,16.6 44.6,16.6 		"/>
		
			<path fill="none" stroke="#2DB674" stroke-width="2.0862" stroke-linecap="round" stroke-linejoin="round" stroke-miterlimit="10" d="
			M26.7,8.5c-0.8-0.6-1.3-1.6-1.3-2.7c0-1.9,1.6-3.5,3.5-3.5s3.5,1.6,3.5,3.5c0,1.1-0.5,2-1.3,2.7"/>
		
			<path fill="none" stroke="#2DB674" stroke-width="2.0862" stroke-linecap="round" stroke-linejoin="round" stroke-miterlimit="10" d="
			M31.2,48.5c0.8,0.6,1.3,1.6,1.3,2.7c0,1.9-1.6,3.5-3.5,3.5s-3.5-1.6-3.5-3.5c0-1.1,0.5-2,1.3-2.7"/>
		
			<path fill="none" stroke="#2DB674" stroke-width="2.0862" stroke-linecap="round" stroke-linejoin="round" stroke-miterlimit="10" d="
			M44.6,16.5c0.2-0.9,0.8-1.6,1.6-2.1c1.7-1,3.8-0.5,4.8,1.2s0.5,3.8-1.2,4.8c-0.8,0.5-1.7,0.6-2.5,0.4"/>
		
			<path fill="none" stroke="#2DB674" stroke-width="2.0862" stroke-linecap="round" stroke-linejoin="round" stroke-miterlimit="10" d="
			M44.6,40.9c0.2,0.9,0.8,1.6,1.6,2.1c1.7,1,3.8,0.5,4.8-1.2c1-1.7,0.5-3.8-1.2-4.8c-0.8-0.5-1.7-0.6-2.5-0.4"/>
		
			<path fill="none" stroke="#2DB674" stroke-width="2.0862" stroke-linecap="round" stroke-linejoin="round" stroke-miterlimit="10" d="
			M12.4,16.5c-0.2-0.9-0.8-1.6-1.6-2.1c-1.7-1-3.8-0.5-4.8,1.2s-0.5,3.8,1.2,4.8c0.8,0.5,1.7,0.6,2.5,0.4"/>
		
			<path fill="none" stroke="#2DB674" stroke-width="2.0862" stroke-linecap="round" stroke-linejoin="round" stroke-miterlimit="10" d="
			M12.4,40.9c-0.2,0.9-0.8,1.6-1.6,2.1C9.1,44,7,43.5,6,41.8C5,40.1,5.5,38,7.2,37c0.8-0.5,1.7-0.6,2.5-0.4"/>
	</g>
	
		<circle fill="none" stroke="#2DB674" stroke-width="2.0862" stroke-linecap="round" stroke-linejoin="round" stroke-miterlimit="10" cx="28.7" cy="28.5" r="7.6"/>
</g>
</svg>
