<?xml version="1.0" encoding="utf-8"?>
<!-- Generator: Adobe Illustrator 18.0.0, SVG Export Plug-In . SVG Version: 6.00 Build 0)  -->
<!DOCTYPE svg PUBLIC "-//W3C//DTD SVG 1.1//EN" "http://www.w3.org/Graphics/SVG/1.1/DTD/svg11.dtd">
<svg version="1.1" id="Layer_1" xmlns="http://www.w3.org/2000/svg" xmlns:xlink="http://www.w3.org/1999/xlink" x="0px" y="0px"
	 width="182px" height="48px" viewBox="0 0 182 48" style="enable-background:new 0 0 182 48;" xml:space="preserve">
<style type="text/css">
	.st0{fill:#FFFFFF;}
	.st1{fill:#2BB673;}
</style>
<g>
	<g>
		<path class="st0" d="M63,16.5c-0.5-0.2-1.4-0.3-2.4-0.3c-2.7,0-4.8,0.6-6,1.4l-2.1,17.5h-5.1l2.8-22.7h3l0.6,1.8
			c1.9-1.4,4.5-2.4,7.4-2.4c1,0,1.8,0.1,2.4,0.3L63,16.5z"/>
		<path class="st0" d="M67.8,25.6c-0.3,3.4,0.6,5.6,5.3,5.6c2.9,0,5.3-0.5,7.4-1.4L80,34.2c-2.7,1.1-5.7,1.4-8.2,1.4
			c-7.6,0-9.7-4.5-8.8-11.9c0.9-7.3,4.1-11.9,11.6-11.9c6.7,0,8.8,3.1,8.3,7s-3.4,6.7-10,6.7L67.8,25.6L67.8,25.6z M73.2,22.1
			c2.7,0,4.4-0.9,4.7-2.9c0.2-2-1.4-2.9-4-2.9c-3.7,0-5,2.4-5.6,5.8C68.3,22.1,73.2,22.1,73.2,22.1z"/>
		<path class="st0" d="M90.3,12.5l3.2,16.4l7.3-16.4h5.5l-11.5,23h-4.2l-5.8-23.1h5.5V12.5z"/>
	</g>
	<path class="st0" d="M117.9,31.2c2.6,0,4.3-0.4,5.9-1v4.4c-1.8,0.8-3.9,1.1-6.3,1.1c-8,0-10.5-4.8-10.5-11.9s2.4-11.9,10.5-11.9
		c2.4,0,4.5,0.4,6.3,1.1v4.4c-1.6-0.6-3.3-1-5.9-1c-4.4,0-5.7,3-5.7,7.4C112.2,28.2,113.5,31.2,117.9,31.2z"/>
	<path class="st0" d="M137.5,16.2c-2.4,0-4,0.6-5.2,1.3v17.6h-5.1v-34h5.1v12.5c1.8-1,3.8-1.7,6.1-1.7c5.8,0,7.8,2.9,7.8,7.2v16
		h-5.1V19.6C141.1,17.3,139.9,16.2,137.5,16.2z"/>
	<path class="st0" d="M153,2.4c1.8,0,3.3,1.5,3.3,3.3S154.8,9,153,9s-3.3-1.5-3.3-3.3S151.2,2.4,153,2.4z M150.5,29.5v-17h5.1v17
		c0,1.3,0.5,1.7,1.9,1.7v4.1c0,0-0.5,0.1-1,0.1C152.4,35.4,150.5,33.4,150.5,29.5z"/>
	<path class="st0" d="M165.9,33.9v12.6h-5.1v-34h3l0.8,1.8c2-1.5,4.3-2.4,7.3-2.4c6.6,0,9.1,4.4,9.1,11.9c0,7.4-2.4,11.9-9.1,11.9
		C169.7,35.7,167.5,34.9,165.9,33.9z M175.9,23.8c0-4.2-0.7-7.6-5.1-7.6c-2.4,0-4,0.8-4.9,1.3V30c0.9,0.5,2.5,1.3,4.9,1.3
		C175.2,31.4,175.9,28,175.9,23.8z"/>
</g>
<g>
	<g>
		<g>
			<g>
				<polygon class="st1" points="18.6,16.7 23.3,16.7 23.3,21.9 32.9,21.9 32.9,7.2 18.6,7.2 				"/>
			</g>
			<g>
				<polygon class="st1" points="10.6,21.9 10.6,16.7 15.8,16.7 15.8,7.2 1,7.2 1,21.9 				"/>
			</g>
			<g>
				<polygon class="st1" points="23.3,24.3 23.3,29.5 18.6,29.5 18.6,39 32.9,39 32.9,24.3 				"/>
			</g>
			<g>
				<polygon class="st1" points="15.8,29.5 10.6,29.5 10.6,24.3 1,24.3 1,39 15.8,39 				"/>
			</g>
		</g>
		<g>
			<polyline class="st1" points="3.7,46.9 3.7,38.5 12,38.5 			"/>
		</g>
	</g>
</g>
</svg>
