<?xml version="1.0" encoding="UTF-8"?>
<!-- Generator: Adobe Illustrator 18.0.0, SVG Export Plug-In . SVG Version: 6.00 Build 0)  -->
<!DOCTYPE svg PUBLIC "-//W3C//DTD SVG 1.1//EN" "http://www.w3.org/Graphics/SVG/1.1/DTD/svg11.dtd">
<svg version="1.1" id="Layer_1" xmlns="http://www.w3.org/2000/svg" xmlns:xlink="http://www.w3.org/1999/xlink" x="0px" y="0px" width="161.3px" height="186.6px" viewBox="0 0 161.3 186.6" style="enable-background:new 0 0 161.3 186.6;" xml:space="preserve" opacity=".05">

<g class="st0">
	<polygon points="122.2,92.9 122.2,115.5 133.3,115.5 133.3,127.8 155.9,127.8 155.9,92.9  "/>
	<polygon points="80.6,127.8 103.2,127.8 103.2,115.5 115.5,115.5 115.5,92.9 80.6,92.9  "/>
	<polygon points="133.3,145.6 122.2,145.6 122.2,168.1 155.9,168.1 155.9,133.3 133.3,133.3  "/>
	<polygon points="103.2,133.3 80.6,133.3 80.6,168.1 87,168.1 87,186.6 105.4,168.1 115.5,168.1 115.5,145.6 103.2,145.6  "/>
	<polygon points="22.6,151.7 0,151.7 0,186.6 33.7,186.6 33.7,164 22.6,164  "/>
	<polygon points="52.7,164 40.4,164 40.4,186.6 75.2,186.6 75.2,151.7 52.7,151.7  "/>
	<polygon points="0,146.2 22.6,146.2 22.6,133.9 33.7,133.9 33.7,111.4 0,111.4  "/>
	<polygon points="68.9,92.9 50.4,111.4 40.4,111.4 40.4,133.9 52.7,133.9 52.7,146.2 75.2,146.2 75.2,111.4 68.9,111.4  "/>
	<polygon points="41.6,31.2 52.7,31.2 52.7,43.5 75.2,43.5 75.2,8.6 41.6,8.6  "/>
	<polygon points="0,43.5 22.6,43.5 22.6,31.2 34.9,31.2 34.9,8.6 0,8.6  "/>
	<polygon points="52.7,61.3 41.6,61.3 41.6,83.8 75.2,83.8 75.2,49 52.7,49  "/>
	<polygon points="22.6,49 0,49 0,83.8 6.3,83.8 6.3,102.3 24.8,83.8 34.9,83.8 34.9,61.3 22.6,61.3  "/>
	<polygon points="114.3,61.3 103.2,61.3 103.2,49 80.6,49 80.6,83.8 114.3,83.8  "/>
	<polygon points="155.9,49 133.3,49 133.3,61.3 121,61.3 121,83.8 155.9,83.8  "/>
	<polygon points="103.2,31.2 114.3,31.2 114.3,8.6 80.6,8.6 80.6,43.5 103.2,43.5  "/>
	<polygon points="133.3,43.5 155.9,43.5 155.9,8.6 149.5,8.6 149.5,9.1 130.6,9.1 131.1,8.6 121,8.6 121,31.2 133.3,31.2  "/>
	<polygon points="149.5,186.7 149.5,176.8 139.7,186.7  "/>
	<polygon points="149.5,9.1 149.5,8.6 149.5,0 139.7,0 131.1,8.6 130.6,9.1  "/>
</g>
</svg>