<?xml version="1.0" encoding="utf-8"?>
<!-- Generator: Adobe Illustrator 18.1.1, SVG Export Plug-In . SVG Version: 6.00 Build 0)  -->
<!DOCTYPE svg PUBLIC "-//W3C//DTD SVG 1.1//EN" "http://www.w3.org/Graphics/SVG/1.1/DTD/svg11.dtd">
<svg version="1.1" id="Layer_1" xmlns="http://www.w3.org/2000/svg" xmlns:xlink="http://www.w3.org/1999/xlink" x="0px" y="0px"
	 width="57px" height="57px" viewBox="0 0 57 57" enable-background="new 0 0 57 57" xml:space="preserve">
<g>
	
		<path fill="none" stroke="#2DB674" stroke-width="1.9817" stroke-linecap="round" stroke-linejoin="round" stroke-miterlimit="10" d="
		M44.6,55H12.4c-5.5,0-9.9-4.4-9.9-9.9V11.9C2.5,6.4,6.9,2,12.4,2h32.2c5.5,0,9.9,4.4,9.9,9.9v33.3C54.5,50.6,50.1,55,44.6,55z"/>
	
		<rect x="20.5" y="15.9" fill="none" stroke="#2DB674" stroke-width="1.9817" stroke-linecap="round" stroke-linejoin="round" stroke-miterlimit="10" width="16.1" height="25.3"/>
	
		<line fill="none" stroke="#2DB674" stroke-width="1.9817" stroke-linecap="round" stroke-linejoin="round" stroke-miterlimit="10" x1="54.5" y1="15.9" x2="2.5" y2="15.9"/>
	
		<line fill="none" stroke="#2DB674" stroke-width="1.9817" stroke-linecap="round" stroke-linejoin="round" stroke-miterlimit="10" x1="54.5" y1="41.1" x2="2.5" y2="41.1"/>
	
		<line fill="none" stroke="#2DB674" stroke-width="1.9817" stroke-linecap="round" stroke-linejoin="round" stroke-miterlimit="10" x1="28.5" y1="15.9" x2="28.5" y2="2"/>
	
		<line fill="none" stroke="#2DB674" stroke-width="1.9817" stroke-linecap="round" stroke-linejoin="round" stroke-miterlimit="10" x1="28.5" y1="55" x2="28.5" y2="41.1"/>
	
		<line fill="none" stroke="#2DB674" stroke-width="1.9817" stroke-linecap="round" stroke-linejoin="round" stroke-miterlimit="10" x1="4.1" y1="28.5" x2="20.5" y2="28.5"/>
	
		<line fill="none" stroke="#2DB674" stroke-width="1.9817" stroke-linecap="round" stroke-linejoin="round" stroke-miterlimit="10" x1="38.1" y1="28.5" x2="54.5" y2="28.5"/>
</g>
</svg>
